<svg xmlns="http://www.w3.org/2000/svg" xmlns:xlink="http://www.w3.org/1999/xlink" version="1.1" x="0px" y="0px" viewBox="0 0 100 125" enable-background="new 0 0 100 100" xml:space="preserve"><polygon points="69.261,7.799 91.834,13.562 91.834,11.146 69.277,5 69.261,5 69.261,5.005 57.748,25.326 42.252,25.326   30.739,5.005 30.739,5 30.723,5 8.166,11.146 8.166,13.562 30.739,7.799 41.96,26.534 41.96,27.378 30.739,9.605 30.739,9.601   30.723,9.601 8.166,15.118 8.166,17.517 30.739,12.379 41.96,29.083 41.96,29.945 30.739,14.204 30.739,14.201 30.723,14.201   30.723,14.204 8.166,19.093 8.166,21.471 30.739,16.957 41.96,31.642 41.96,32.511 30.739,18.803 30.739,18.8 30.723,18.8   30.723,18.803 8.166,23.063 8.166,25.427 30.723,21.54 30.739,21.54 41.96,34.198 41.96,35.076 30.739,23.397 8.166,27.032   8.166,29.383 30.739,26.121 41.96,36.754 41.96,37.641 30.739,27.994 8.166,31.001 8.166,33.341 30.739,30.706 41.96,39.31   41.96,40.204 30.739,32.588 8.166,34.967 8.166,37.299 30.739,35.289 41.96,41.869 41.96,42.768 30.739,37.182 30.739,37.209   8.166,38.956 8.166,41.257 30.739,39.873 41.96,44.426 41.96,45.331 30.739,41.775 30.739,41.81 8.166,42.929 8.166,45.217   30.739,44.46 41.96,46.985 41.96,47.893 30.739,46.367 8.166,46.862 8.166,49.178 30.739,49.049 41.96,49.546 41.96,50.452   30.739,50.954 8.166,50.824 8.166,53.14 30.739,53.636 41.96,52.104 41.96,53.013 30.739,55.545 8.166,54.787 8.166,57.106   30.739,58.229 41.96,54.667 41.96,55.572 30.739,60.132 8.166,58.747 8.166,61.073 30.739,62.823 41.96,57.23 41.96,58.129   30.739,64.716 8.166,62.707 8.166,65.036 30.739,67.414 41.96,59.792 41.96,60.688 30.739,69.303 8.166,66.665 8.166,69.004   30.739,72.011 41.96,62.357 41.96,63.243 30.739,73.883 8.166,70.621 8.166,72.972 30.739,76.607 41.96,64.923 41.96,65.772   30.739,78.402 8.166,74.523 8.166,76.94 30.739,81.201 41.96,67.486 41.96,68.355 30.739,83.047 30.739,83.003 8.166,78.495   8.166,80.911 30.739,85.802 41.96,70.052 41.96,70.911 30.739,87.63 30.739,87.603 8.166,82.468 8.166,84.885 30.739,90.402   41.96,72.62 41.96,73.464 30.739,92.207 30.739,92.203 8.166,86.438 8.166,88.854 30.739,95 42.253,74.668 57.747,74.668 69.261,95   91.834,88.854 91.834,86.438 69.261,92.203 69.261,92.207 58.04,73.464 58.04,72.62 69.261,90.402 91.834,84.885 91.834,82.468   69.261,87.603 69.261,87.63 58.04,70.911 58.04,70.052 69.261,85.802 91.834,80.911 91.834,78.495 69.261,83.003 69.261,83.047   58.04,68.355 58.04,67.486 69.261,81.201 91.834,76.94 91.834,74.523 69.261,78.402 58.04,65.772 58.04,64.923 69.261,76.607   91.834,72.972 91.834,70.621 69.261,73.883 58.04,63.243 58.04,62.357 69.261,72.011 91.834,69.004 91.834,66.665 69.261,69.303   58.04,60.688 58.04,59.792 69.261,67.414 91.834,65.036 91.834,62.707 69.261,64.716 58.04,58.129 58.04,57.23 69.261,62.823   91.834,61.073 91.834,58.747 69.261,60.132 58.04,55.572 58.04,54.667 69.261,58.229 91.834,57.106 91.834,54.787 69.261,55.545   58.04,53.013 58.04,52.104 69.261,53.636 91.834,53.14 91.834,50.824 69.261,50.954 58.04,50.452 58.04,49.546 69.261,49.049   91.834,49.178 91.834,46.862 69.261,46.367 58.04,47.893 58.04,46.985 69.261,44.46 91.834,45.217 91.834,42.929 69.261,41.81   69.261,41.775 58.04,45.331 58.04,44.426 69.261,39.873 91.834,41.257 91.834,38.956 69.261,37.209 69.261,37.182 58.04,42.768   58.04,41.869 69.261,35.289 91.834,37.299 91.834,34.967 69.261,32.588 58.04,40.204 58.04,39.31 69.261,30.706 91.834,33.341   91.834,31.001 69.261,27.994 58.04,37.641 58.04,36.754 69.261,26.121 91.834,29.383 91.834,27.032 69.261,23.397 58.04,35.076   58.04,34.198 69.261,21.54 69.277,21.54 91.834,25.427 91.834,23.063 69.277,18.803 69.277,18.8 69.261,18.8 69.261,18.803   58.04,32.511 58.04,31.642 69.261,16.957 91.834,21.471 91.834,19.093 69.277,14.204 69.277,14.201 69.261,14.201 69.261,14.204   58.04,29.945 58.04,29.083 69.261,12.379 91.834,17.517 91.834,15.118 69.277,9.601 69.261,9.601 69.261,9.605 58.04,27.378   58.04,26.534 "/><text x="0" y="115" fill="#000000" font-size="5px" font-weight="bold" font-family="'Helvetica Neue', Helvetica, Arial-Unicode, Arial, Sans-serif">Created by luca fruzza</text><text x="0" y="120" fill="#000000" font-size="5px" font-weight="bold" font-family="'Helvetica Neue', Helvetica, Arial-Unicode, Arial, Sans-serif">from the Noun Project</text></svg>